<?xml version="1.0" encoding="utf-8"?>
<!-- Generator: Adobe Illustrator 25.2.3, SVG Export Plug-In . SVG Version: 6.00 Build 0)  -->
<svg version="1.1" id="Layer_1" xmlns="http://www.w3.org/2000/svg" xmlns:xlink="http://www.w3.org/1999/xlink" x="0px" y="0px"
	 viewBox="0 0 512 512" style="enable-background:new 0 0 512 512;" xml:space="preserve">
<style type="text/css">
	.st0{fill:#672C82;}
	.st1{fill:#4E1D68;}
	.st2{fill:#F5FAFA;}
	.st3{fill:#E1EBF0;}
</style>
<g>
	<path class="st0" d="M256,512c-1.5,0-3.1-0.2-4.6-0.7c-0.1,0-0.1,0-0.2-0.1c-121.4-40.5-203-153.7-203-281.7V95.3
		c0-6.1,3.6-11.5,9.2-13.8L250.2,1.2c3.7-1.5,7.8-1.5,11.5,0l192.8,80.3c5.6,2.3,9.2,7.8,9.2,13.8v134.2c0,128-81.6,241.2-203,281.7
		c-0.1,0-0.1,0-0.2,0.1C259.1,511.8,257.5,512,256,512L256,512z"/>
	<path class="st1" d="M260.6,511.3c0.1,0,0.1,0,0.2-0.1c121.4-40.5,203-153.7,203-281.7V95.3c0-6.1-3.6-11.5-9.2-13.8L261.8,1.2
		C259.9,0.4,258,0,256,0v512C257.5,512,259.1,511.8,260.6,511.3L260.6,511.3z"/>
	<path class="st2" d="M229.3,346.9L141,258.6c-5.9-5.9-5.9-15.4,0-21.2l45.4-45.4c0.3-0.3,4.1-4.4,10.6-4.4c4,0,7.8,1.6,10.6,4.4
		l32.3,32.3l72.5-72.5c5.9-5.9,15.4-5.9,21.2,0l45.4,45.4c5.9,5.9,5.9,15.4,0,21.2L250.5,346.9C244.7,352.8,235.2,352.8,229.3,346.9
		z"/>
	<path class="st3" d="M256,341.5l123.1-123.1c5.9-5.9,5.9-15.4,0-21.2l-45.4-45.4c-5.9-5.9-15.4-5.9-21.2,0L256,208.2L256,341.5z"/>
</g>
</svg>
