<?xml version="1.0" encoding="utf-8"?>
<!-- Generator: Adobe Illustrator 25.2.3, SVG Export Plug-In . SVG Version: 6.00 Build 0)  -->
<svg version="1.1" id="Capa_1" xmlns="http://www.w3.org/2000/svg" xmlns:xlink="http://www.w3.org/1999/xlink" x="0px" y="0px"
	 viewBox="0 0 16 16" style="enable-background:new 0 0 16 16;" xml:space="preserve">
<style type="text/css">
	.st0{fill-rule:evenodd;clip-rule:evenodd;fill:#672C82;}
	.st1{fill-rule:evenodd;clip-rule:evenodd;fill:#FFFFFF;}
</style>
<path class="st0" d="M0,2c0-1.1,0.9-2,2-2h12c1.1,0,2,0.9,2,2v12c0,1.1-0.9,2-2,2H2c-1.1,0-2-0.9-2-2V2z"/>
<path class="st1" d="M15,2c0-0.6-0.4-1-1-1H2C1.4,1,1,1.4,1,2v12c0,0.6,0.4,1,1,1h12c0.6,0,1-0.4,1-1V2z"/>
<path class="st0" d="M8.5,11.5C8.5,11.8,8.3,12,8,12c-0.3,0-0.5-0.2-0.5-0.5V5.7L5.4,7.9C5.2,8,4.8,8,4.6,7.9s-0.2-0.5,0-0.7l3-3
	C7.8,4,8.2,4,8.4,4.1c0,0,0,0,0,0l3,3c0.2,0.2,0.2,0.5,0,0.7s-0.5,0.2-0.7,0L8.5,5.7V11.5z"/>
</svg>
