<?xml version="1.0" encoding="utf-8"?>
<!-- Generator: Adobe Illustrator 25.2.1, SVG Export Plug-In . SVG Version: 6.00 Build 0)  -->
<svg version="1.1" id="Capa_1" xmlns="http://www.w3.org/2000/svg" xmlns:xlink="http://www.w3.org/1999/xlink" x="0px" y="0px"
	 viewBox="0 0 1046.8 1262.2" style="enable-background:new 0 0 1046.8 1262.2;" xml:space="preserve">
<style type="text/css">
	.st0{fill:#FFFFFF;stroke:#343348;stroke-width:5;stroke-linecap:round;stroke-miterlimit:10;}
	.st1{fill:#0084FF;}
	.st2{fill:#43435E;}
	.st3{fill:none;stroke:#43435E;stroke-width:7;stroke-linecap:round;stroke-linejoin:round;stroke-miterlimit:10;}
	.st4{fill:#FFC0B7;}
	.st5{fill:#4E1D68;}
	.st6{fill:#343348;}
	.st7{fill:none;stroke:#343348;stroke-width:7;stroke-linecap:round;stroke-miterlimit:10;}
	.st8{fill:#FFCFC9;}
	.st9{fill:#672C82;}
	.st10{fill:#FAB6AD;}
	.st11{fill:#FFB000;}
	.st12{fill:none;stroke:#F49C00;stroke-width:5;stroke-miterlimit:10;}
	.st13{fill:#FF8400;}
	.st14{fill:none;stroke:#FF8400;stroke-width:3;stroke-linecap:round;stroke-linejoin:round;stroke-miterlimit:10;}
	.st15{fill:none;stroke:#343348;stroke-width:5;stroke-linecap:round;stroke-miterlimit:10;}
	.st16{fill:#FFFFFF;stroke:#0084FF;stroke-width:6;stroke-miterlimit:10;}
	.st17{fill:#FFFFFF;}
	.st18{fill:#6C757D;}
	.st19{fill:#FFFFFF;stroke:#343348;stroke-width:5;stroke-miterlimit:10;}
</style>
<g id="Layer_2">
	<g id="Слой_1">
		<g id="_2">
			<g id="CHAIR">
				<path class="st0" d="M547.7,1238.4l-52.8-380.5h37.8l27.2,380.5c-0.1,3.3-2.8,5.9-6.1,5.9l0,0
					C550.5,1244.3,547.8,1241.7,547.7,1238.4z"/>
				<path class="st0" d="M312.7,1238.4l27.2-380.5h37.8l-52.8,380.5c-0.1,3.3-2.8,5.9-6.1,5.9l0,0
					C315.5,1244.3,312.8,1241.7,312.7,1238.4z"/>
				<path class="st0" d="M203.7,1238.4l27.2-380.5h37.8l-52.8,380.5c-0.1,3.3-2.8,5.9-6.1,5.9l0,0
					C206.5,1244.3,203.8,1241.7,203.7,1238.4z"/>
				<polygon class="st0" points="231.8,776.3 242.7,820.1 206.8,820.1 195.9,776.3 				"/>
				<polygon class="st0" points="371.9,776.3 382.8,820.1 346.9,820.1 336,776.3 				"/>
				<path class="st1" d="M599.6,839.5L599.6,839.5c0,12.4-10,22.4-22.4,22.4H201.9c-12.4,0-22.4-10-22.4-22.4l0,0
					c0-12.4,10-22.4,22.4-22.4h375.3C589.5,817.1,599.6,827.1,599.6,839.5z"/>
				<path class="st1" d="M72.3,436.5h269.4c9.3,0,17.7,8.8,20.9,22.2L430.4,739c4.7,19.6-4.8,40.3-18.5,40.3h-248
					c-22.9,0-42.8-15.6-48.3-37.7l-68-273C43.8,453,61.4,436.5,72.3,436.5z"/>
			</g>
			<g id="CHARACTER">
				<g id="LEGS">
					<g id="LEFT_LEG">
						<g id="FOOT">
							<path class="st2" d="M887.2,1170.7c0,0,42.8,35.7,76.5,39.6c33.7,3.9,27.4,32.1,27.4,32.1s-65.5,0-96.3-0.2
								c-25.9-0.2-78.7-0.2-78.7-0.2c-7.2-35.4,14.2-56.6,14.2-63.5L887.2,1170.7z"/>
							<path class="st3" d="M991.1,1245.4c0,0-146.5,0-177.3-0.2"/>
							<path class="st4" d="M831.3,1177.4c1.5-21.4-7.5-41.7-7.5-41.7l54.3-4.8c0,0,4.8,30.4,8.2,39.7
								C889.9,1180.9,830.8,1184.7,831.3,1177.4z"/>
						</g>
						<path id="PANT" class="st5" d="M305.8,695.1c35.7-2.1,83.3-9.1,129.6-28.6c16.8-7,32.9-15.7,48.1-25.8
							c51,4.4,287.4,57.1,308.4,91.5c39.8,65.1,95.3,396.8,95.3,396.8c-20.1,5.2-93.5,7.7-93.5,7.7
							C687.4,1022,681.5,800.4,681.5,800.4s-282.9,15.6-343.2-9.1C299.4,775.3,300.3,727.1,305.8,695.1z"/>
					</g>
					<g id="RIGHT_LEG">
						<g id="FOOT-2">
							<path class="st6" d="M846.2,1170.7c0,0,42.8,35.7,76.5,39.6c33.7,3.9,27.4,32.1,27.4,32.1s-65.5,0-96.3-0.2
								c-25.9-0.2-78.7-0.2-78.7-0.2c-7.2-35.4,14.2-56.6,14.2-63.5L846.2,1170.7z"/>
							<path class="st7" d="M950.1,1245.4c0,0-146.5,0-177.3-0.2"/>
							<path class="st8" d="M790.3,1177.4c-4.2-29.3-15.5-39.7-15.5-39.7l62.3-6.8c0,0,4.8,30.4,8.2,39.7
								C848.9,1180.9,791.3,1184.6,790.3,1177.4z"/>
						</g>
						<path id="PANT-2" class="st9" d="M268,695.7c33.5,0.9,101.6-1.5,167.4-29.2c39.9,1.3,302.6,60.9,312.9,91.8
							c18.8,56.5,104.5,369.8,104.5,369.8c-20.1,5.2-87,10-87,10C632.3,1019.4,638,826.4,638,826.4s-282.9,15.6-343.2-9.1
							C242.3,795.9,262,716,268,695.7z"/>
					</g>
				</g>
				<g id="LEFT_HAND">
					<path class="st4" d="M477.3,436.6l48.8-32c3,13.8,14,60.3,23.2,98.3c68.7-0.5,165.2,14.7,215.5,26.6
						c13.6-3.3,39.2-5.2,49.9-3.8c14.7,2,36.5,15,39.7,18.1c3.3,3.1,12.4,20.1,12.4,20.1s-4.5,7.3-14-1.9
						c-9.5-9.2-31.4-17.5-35.8-13.8c-9.9,8.2,17.2,5.2,20.8,9c3.7,3.8,2.8,6.6,2.8,6.6s-25.2,3.9-29.3,4.1s-21.4-4-30.4-9.1
						c-4.1-2.4-8-5-11.8-7.9c-68.9,13.8-233.4,19.7-301.8,6L477.3,436.6z"/>
					<path class="st10" d="M477.3,436.6l-1.6,24.3c40.8-10.6,53.5-42.6,53.5-42.6l-3.1-13.6L477.3,436.6z"/>
				</g>
				<g id="T-SHIRT">
					<path class="st11" d="M221.6,280.3c14.6-17.2,73.3-45.9,85.7-56.1c0,0,46.3,11.9,76.8,23.4c30.5,11.5,76.4,19.9,106,37.9
						c29.6,18,48.1,109.7,48.1,109.7c-35.7,28.3-60.9,41.4-60.9,41.4s3.8,3-4.4,70.2C460.5,607.9,484.4,640,484.4,640
						c-102.9,69.5-237.7,54.4-237.7,54.4s5-75,5-100.6c0-9.5-6.2-53-13.2-104.6c-6.1,0.6-9.8,0.9-9.8,0.9
						C172.4,374.8,200.9,299.3,221.6,280.3z"/>
					<path class="st12" d="M319.5,363.7c15.2,75.5,27.8,96.2,27.8,96.2"/>
					<path class="st12" d="M475.6,363.3c2.4,19,4.3,53.2,2.9,71.4"/>
				</g>
				<g id="RIGHT_HAND">
					<path class="st8" d="M341.2,463.3l29.3,75.2c102.3-19.2,160.3-21.3,189.3-20.2c25.2-2.7,74.2,4,83.2,5.2
						c7.4,0.2,22,3.5,27.2,6.6c5.4,3.3,21,17.1,21,17.1s-3.6,5.9-10.6,2.6c-4.6-2.2-13.7-8.6-19.6-10.9c8.4,8.6,16.7,17.7,16.7,17.7
						s-7.7,7.1-21,8.7c-6.4,0.8-18-8.3-28-13c-10-4.7-22.2,6.3-37.4,10.7c-7.5,2.2-16.4-1.3-23.4-5.4l-12.5,0.4
						c-28.5,0.9-160.2,75.9-239,68.7c-24.2-2.2-77.7-137.3-77.7-137.3C296.7,483,341.2,463.3,341.2,463.3z"/>
					<path class="st10" d="M341.2,463.2l1.6,4.1c-28.3,28.8-67.7,44-92,51.2c-7.4-17.1-12.2-29.4-12.2-29.4
						C296.7,483,341.2,463.2,341.2,463.2z"/>
				</g>
				<g id="HEAD">
					<g id="NECK">
						<path class="st8" d="M426.5,191.2c-2.7,12.4-18.3,64.2-18.3,64.2s45.3,33.7-14.8,29.8c-60.1-3.9-86.1-60.9-86.1-60.9
							c49.4-33.1,53.4-90.1,53.4-90.1L426.5,191.2z"/>
						<path class="st10" d="M362.1,140.9l1.9-3.9l62.5,54.2c-1.4,6.6-6.6,24.6-11.1,39.8c-28.5-3.8-51.5-41.2-54.5-67.3
							C360.3,158.2,362.1,140.9,362.1,140.9z"/>
					</g>
					<path id="HEAD-2" class="st8" d="M369.1,112.9c0,0,4-58.7,60.5-54.3s59.6,41.5,57.4,64.9c-2.2,23.4-26.6,86.9-47.5,86.9
						c-26.9,0-61.6-26.4-72.6-49.4c-2.4-5-1.5-22.9-1.5-22.9L369.1,112.9z"/>
					<g id="HAIR">
						<path class="st13" d="M487,123.6c1.1-11.4,0.9-26.2-6.2-38.7C468,86.8,455,89.5,445,89.7C411.5,90,402.7,68,402.7,68
							c2.7,32.4-30,28.5-33.6,45c-1.6,7.4-11.9,41.8-11.9,41.8s-38.4-86.3-22.5-107c15.9-20.7,34.2-13,34.2-13s8.6-20.5,38.2-24.3
							c33-4.2,55.2,20.3,65.8,31.8c10.6,11.5,29.6,3.1,50.4,21.2c17.6,15.3,7.1,36.2,7.1,36.2C517.1,123.1,487,123.5,487,123.6z"/>
						<path class="st14" d="M339.3,34.2c15.7-13.5,30.5,0.6,30.5,0.6"/>
						<path class="st14" d="M442.4,97.8c-33.5-1.9-39.7-31.7-39.7-31.7"/>
					</g>
					<g id="HEADPHONES">
						<path class="st15" d="M382.2,13.9c-5.6-0.4-10.5,3.6-11.3,9.2l-10.7,80.5"/>
						<path class="st15" d="M514.1,565.5c2.9,62.9-46.8,55.4-44.7,0c3.2-84.2-58.5-81.5-87-131.8s27.8-72.2-15.5-145.7
							s-18.4-112-15.5-126.1"/>
						<path class="st15" d="M448.1,212.1c35.1,66.4,11.8,119-12,158.1c-23.8,39.1-8.8,107.8,6,119.9"/>
						<path class="st16" d="M381.6,118.6l-5.3,35.2c-1,6.4-6.9,10.8-13.3,9.8l-21-3.2c-6.4-1-10.8-6.9-9.8-13.3l5.3-35.2
							c1-6.4,6.9-10.8,13.3-9.8l21,3.2C378.1,106.3,382.5,112.2,381.6,118.6z"/>
					</g>
				</g>
			</g>
			<g id="TABLE">
				<path class="st17" d="M840.6,616.7H435.5c-5.7,0-10.4-6.6-10.4-14.8v-1.4c0-8.2,4.6-14.8,10.4-14.8h538.1"/>
				<path class="st15" d="M838.6,614.7H435.5c-5.7,0-10.4-6.6-10.4-14.8v-1.4c0-8.2,4.6-14.8,10.4-14.8h532.1"/>
				<polygon class="st17" points="426.7,1249.9 527.7,615.7 562.8,615.7 460.8,1250.9 				"/>
				<polygon class="st18" points="527.7,615.7 562.8,615.7 559.6,633.8 521.7,647.9 				"/>
				<polyline class="st7" points="428.7,1245.9 527.7,615.7 562.8,615.7 462.8,1246.9 				"/>
			</g>
			<g id="LAPTOP">
				<path class="st19" d="M582.7,556.3c-10.2-3.7-15.4-15-11.7-25.1L638.3,348c3.2-8.7,11.5-14.5,20.7-14.5h306.8
					c1.9,0,3.7,0.3,5.4,1c8.1,3,12.2,12,9.2,20l-69.8,190.2c-2.8,7.7-10.2,12.8-18.4,12.8H589.4
					C587.1,557.5,584.9,557.1,582.7,556.3z"/>
				<path class="st19" d="M584.8,531.1l65-183.2c2.9-8.6,10.9-14.4,20-14.5h296.5c10.5,0,17.8,10.8,14.1,21L913,544.7
					c-2.6,7.6-9.7,12.8-17.8,12.8H602.6C589.5,557.5,580.3,544,584.8,531.1z"/>
				<path class="st19" d="M906,567.6v0.5c0,5.6-4.5,10.1-10.1,10.1H460.2c-5.6,0-10.1-4.5-10.1-10.1v-0.5c0-5.6,4.5-10.1,10.1-10.1
					h435.7C901.4,557.5,906,562,906,567.6z"/>
			</g>
		</g>
	</g>
</g>
<rect x="1093.5" y="-0.8" class="st9" width="1047.9" height="1262.9"/>
</svg>
