<?xml version="1.0" encoding="utf-8"?>
<!-- Generator: Adobe Illustrator 25.2.3, SVG Export Plug-In . SVG Version: 6.00 Build 0)  -->
<svg version="1.1" id="Capa_1" xmlns="http://www.w3.org/2000/svg" xmlns:xlink="http://www.w3.org/1999/xlink" x="0px" y="0px"
	 viewBox="0 0 1048.1 1264.5" style="enable-background:new 0 0 1048.1 1264.5;" xml:space="preserve">
<style type="text/css">
	.st0{fill:#0084FF;stroke:#0084FF;stroke-width:4.9665;stroke-miterlimit:10;}
	.st1{fill:none;stroke:#343348;stroke-width:5.9598;stroke-linecap:round;stroke-miterlimit:10;}
	.st2{fill:#0084FF;}
	.st3{fill:none;stroke:#343348;stroke-width:3.9732;stroke-linecap:round;stroke-miterlimit:10;}
	.st4{fill:#4E1D68;}
	.st5{fill:#672C82;}
	.st6{fill:#FFB000;}
	.st7{fill:#FFCFC9;}
	.st8{fill:none;stroke:#FAB6AD;stroke-width:2.9799;stroke-miterlimit:10;}
	.st9{fill:#FFFFFF;stroke:#343348;stroke-width:4.9665;stroke-miterlimit:10;}
	.st10{fill:#FAB6AD;}
	.st11{fill:#FF8400;}
</style>
<g id="Layer_2">
	<g id="Слой_1">
		<g id="_2">
			<g id="CHAIR">
				<path class="st0" d="M551.9,846.4v0.2l0,0H186.4l0,0v-0.2c0-21.9,17.8-39.5,39.6-39.5h286.2
					C534.1,806.8,551.8,824.5,551.9,846.4z"/>
				<line class="st1" x1="263" y1="1252.8" x2="475.2" y2="848.3"/>
				<line class="st1" x1="475.2" y1="1252.8" x2="263" y2="848.3"/>
			</g>
			<g id="MAN">
				<g id="LEGS">
					<g id="LEFT">
						<path class="st2" d="M924.9,1219.2c-29.1-3.5-64.6-36.9-70.9-43.1c-17.5,8.6-36.9,12.9-56.3,12.3c2,15-13.9,28.2-12.3,51.9
							c0.8,11.8,49.3,6.8,74,6.9c29.3,0.2,91.7,0.2,91.7,0.2S957,1223,924.9,1219.2z"/>
						<path class="st1" d="M784.8,1249.2c29.3,0.2,167.2,0.2,167.2,0.2"/>
						<path class="st3" d="M913.7,1217c0,0,0.5-3.7-2.8-7.5c-5.9-7-21.3,3-19.8,6.7c2.7,6.4,12.2,3,7.2-12.2
							c-6.4-19.1-24.1,1.4-24.1,1.4"/>
						<path class="st4" d="M883.1,1181.8l-93.5,9.9c-143.2-167.5-133.4-371.3-133.4-371.3s-167.5,53-241.6,12.2
							c-69.8-38.5-61.2-144-56.4-159.8l95.4-2.6c0,0,301.1,35.8,323.4,100.8C798.7,833.9,843.2,1024.4,883.1,1181.8z"/>
					</g>
					<g id="RIGHT">
						<path class="st2" d="M694.4,1219.2c-29.1-3.5-64.6-36.9-70.9-43.1c-17.5,8.6-36.9,12.9-56.3,12.3c2,15-13.9,28.2-12.3,51.9
							c0.8,11.8,49.3,6.8,74,6.9c29.3,0.2,91.7,0.2,91.7,0.2S726.6,1223,694.4,1219.2z"/>
						<path class="st1" d="M554.4,1249.2c29.3,0.2,167.2,0.2,167.2,0.2"/>
						<path class="st3" d="M683.3,1217c0,0,0.5-3.7-2.8-7.5c-5.9-7-21.3,3-19.8,6.7c2.7,6.4,12.2,3,7.2-12.2
							c-6.4-19.1-24.1,1.4-24.1,1.4"/>
						<path class="st5" d="M646.9,1181.8l-89.9,9.9C467.8,971,538.5,845,538.5,845s-191.7,18.5-265.8-22.3
							C203,784.2,221.2,691.6,226,675.8l188.9-4.3c0,0,222.1,54.3,236,98.9C670.5,833.9,631.2,1064.8,646.9,1181.8z"/>
					</g>
				</g>
				<path id="T-SHIRT" class="st6" d="M490.3,672.6C334.1,732.2,214.4,704,214.4,704s9.8-36.6,14-63.9l-14.3-213.3
					c-61.1-36.4-102.8-39.3-102.8-39.3s17.9-93.3,53.9-121.8c31-24.5,118-48.2,118-48.2l119,8.8c0,0,52.8,12.3,89.5,25
					c42.6,14.8,97.9,112.8,97.9,112.8c-34.5,38.5-94.4,58.9-94.4,58.9c-24.1,112.2-53.5,216.9-53.5,216.9
					C435.9,661.2,490.3,672.6,490.3,672.6z"/>
				<g id="LEFT_HAND">
					<path class="st7" d="M496.4,423.2c0,0,80.6,113.5,134.8,113.5c68.2,0,152.2-258.5,152.2-258.5L748,266.5
						c-11.4,16.3-119.2,158-119.2,158L589.4,365C567.6,389.8,496.4,423.2,496.4,423.2z"/>
					<g id="ARM">
						<path class="st7" d="M781.7,278.3c9.7,3.2,40.9-27.9,46.6-38.9c4.3-8.1,4.8-16.4-2-16.9c-9.4-0.7-6.4-6.9-14.1-10.2
							c-7.7-3.4-8.3,1.7-14-4.4c-5.7-6.1-13.4-2.4-13.4-2.4s14.1-36.3,10.2-38.3c-8.3-4.6-30.9,39-38.9,51.1s-8.1,48.4-8.1,48.4
							S772,275.1,781.7,278.3z"/>
						<path class="st8" d="M801.4,217c0,0-17.7,25.3-8.2,29.3s23.7-22.4,23.7-22.4s-17.6,25.1-7.9,28.7c9.6,3.6,17-13.2,18.1-15.5"
							/>
						<path class="st8" d="M770.3,254c3.8-7.2,4.9-18.4,5.1-20.2c0.2-1.8,0.2-1.8,8-0.4c11.6,2,13.4-10.4,13.4-10.4
							s-14.4-5-23.8-7.3c-9.4-2.2-13,0.4-16.2,5.8"/>
					</g>
				</g>
				<g id="RIGHT_HAND">
					<path class="st9" d="M604.3,462.5l-8.7,1.2c-18.3,3.4-33.8,15.3-36.8,31.2l-22.7,116.8c-3.5,18.3-23.9,33.2-45.7,33.2H332.8
						c21.7,0,42.1-14.9,45.7-33.2l22.9-118.1c3.5-18.3,24-33.2,45.7-33.2h157.6L604.3,462.5z"/>
					<path class="st7" d="M111.7,387.2c64.4,7.2,102.3,39.7,102.3,39.7L172.5,526c40.5,14.1,120.5,58.9,155.7,79.2
						c12.8-11.6,33.5-19.8,37.2-19.7l15.3,0.2l-2.4,12c-3.4,2.3-9.7,0.5-10.8,5.7c-1.1,5.2,5.5,10.3,8.9,10.6
						c8.2,0.7,21.7,2,27.8-10c6.9-13.3,19.4-11.5,19.4-11.5s-4.8,22.2-5.8,24.7c-1,2.6-19,19.6-28.3,22.6
						c-7.9,2.6-48.1,0.2-55.8-0.8c-1.8-0.2-3.5-0.6-5.2-1.2C292.4,632,127.2,603.7,104,571C80.2,537.2,111.6,387.2,111.7,387.2z"/>
				</g>
				<g id="HEAD">
					<g id="NECK">
						<path class="st7" d="M398.4,155.7c-3.4,51.9,7.4,73.1,7.4,73.1s18.7,37.4-24.8,34.7c-43.5-2.7-99.7-45.3-99.7-45.3
							c45.9-25,37.1-86.4,37.1-86.4L398.4,155.7z"/>
						<path class="st10" d="M399.8,205.6c-3.5,1.5-7.4,2.6-11.1,1.6c-63.1-16.7-67.5-71-68.6-74.9l78.4,23.4
							C397,177.6,398.1,194,399.8,205.6z"/>
					</g>
					<path id="HEAD-2" class="st7" d="M308.5,112c5.1-6.3,15.9,1.7,15.9,1.7s-8.7-79,65.1-65.7c67.1,12.1,44.8,139-0.7,133.4
						c-51-6.3-69.8-49.3-69.8-49.3S303.5,118.4,308.5,112z"/>
					<path id="HAIR" class="st11" d="M300.8,47.1c7.6-6.8,18.1-10.6,25.4-12.7c-0.3-0.1-0.6-0.3-0.9-0.4c-4.9-2.5-7.9-6.4-6.8-8.5
						s6.1-2,10.9,0.5c2.6,1.2,4.8,3.1,6.4,5.5c3.2-4,17.4-20.4,36.5-22.3c21.9-2.2,74.4,25.1,74.4,54.1c0,11.5-15.6,35.8-15.6,35.8
						c-1.4-18.5-17.8-15.5-37.2-27.8c-5.3-3.3-15.3-10.2-14.4-5c0.9,6.1,17.2,17.6,2.1,16.3c-15.1-1.3-25.3-12.2-30.2-11.4
						c-4.9,0.8,7,11.3,0.8,11.8c-11.1,0.9-17.5-0.9-20.9-2.9c5.2,10.4,6.9,29.8-7.3,34.5l-6.1,12C318,126.4,275.2,69.4,300.8,47.1z"
						/>
					<path id="EAR" class="st7" d="M321.2,134.7c0,0-20.4-16.4-12.8-22.5s15.9,2.9,15.9,2.9L321.2,134.7z"/>
				</g>
			</g>
		</g>
	</g>
</g>
</svg>
