<?xml version="1.0" encoding="utf-8"?>
<!-- Generator: Adobe Illustrator 25.2.1, SVG Export Plug-In . SVG Version: 6.00 Build 0)  -->
<svg version="1.1" id="Capa_1" xmlns="http://www.w3.org/2000/svg" xmlns:xlink="http://www.w3.org/1999/xlink" x="0px" y="0px"
	 viewBox="0 0 1047.9 1264.2" style="enable-background:new 0 0 1047.9 1264.2;" xml:space="preserve">
<style type="text/css">
	.st0{fill:none;stroke:#343348;stroke-width:5.9378;stroke-miterlimit:10;}
	.st1{fill:#0084FF;stroke:#0084FF;stroke-width:5.9378;stroke-miterlimit:10;}
	.st2{fill:#FFB819;}
	.st3{fill:#F49C00;}
	.st4{fill:#0084FF;}
	.st5{fill:#C36F0B;}
	.st6{fill:none;stroke:#343348;stroke-width:6.9274;stroke-linecap:round;stroke-miterlimit:10;}
	.st7{fill:none;stroke:#FFFFFF;stroke-width:5.9378;stroke-linecap:round;stroke-miterlimit:10;}
	.st8{fill:#672C82;}
	.st9{fill:#FFB000;}
	.st10{fill:none;stroke:#F49C00;stroke-width:5.9378;stroke-miterlimit:10;}
	.st11{fill:none;stroke:#F49C00;stroke-width:5.9378;stroke-linecap:round;stroke-miterlimit:10;}
	.st12{fill:none;stroke:#B65A18;stroke-width:3.9585;stroke-linecap:round;stroke-miterlimit:10;}
	.st13{fill:none;stroke:#B65A18;stroke-width:2.9689;stroke-linecap:round;stroke-miterlimit:10;}
	.st14{fill:#B65A18;}
	.st15{fill:none;stroke:#343348;stroke-width:2.9689;stroke-linecap:round;stroke-miterlimit:10;}
	.st16{fill:#343348;}
	.st17{fill:#6C757D;}
	.st18{fill:#FFFFFF;}
	.st19{fill:#FFFFFF;stroke:#343348;stroke-width:5.9378;stroke-miterlimit:10;}
</style>
<g id="Layer_2">
	<g id="Слой_1">
		<g id="_4">
			<g id="CHAIR">
				<line class="st0" x1="552.2" y1="793.7" x2="552.2" y2="1254.6"/>
				<line class="st0" x1="755.8" y1="793.7" x2="755.8" y2="1254.6"/>
				<line class="st0" x1="550.3" y1="1180.5" x2="753.3" y2="1180.5"/>
				<path class="st1" d="M517.9,732h270.3c9.1,0,16.4,7.4,16.4,16.4v28.9c0,9.1-7.4,16.4-16.4,16.4H517.9c-9.1,0-16.4-7.4-16.4-16.4
					v-28.9C501.5,739.3,508.8,732,517.9,732z"/>
			</g>
			<g id="CHARACTER">
				<g id="HOOD">
					<path class="st2" d="M750.9,287c16.8-4.7,39.9-56.7,14.5-84.9c-25.4-28.2-79.2-29-124.8-22.2c-42.2,6.3-97.6,30.8-76.5,83.6
						C594.1,338.6,750.9,287,750.9,287z"/>
					<path class="st3" d="M725.6,251.6c15.8-3.3,43-29.7,19.1-49.7c-23.9-20-60.7-22-100-15.3s-79.9,20.6-61.2,58.6
						C602.2,283.2,725.6,251.6,725.6,251.6z"/>
				</g>
				<g id="LEGS">
					<g id="RIGHT_FOOT">
						<path class="st4" d="M819.1,1250c-10.2,6.3-72.9,5.9-84.7,0c-11.8-5.9-9.1-26-11-39.4c-2-13.4-29.9-38.6-31.5-47.3
							c-1.6-8.7,28.8-27.6,34-35.3c-4.3,12.8,39.1,15.6,42.6,7.3c-1.7,30.3,20.6,78.6,38.9,82.9C818.8,1221,829.3,1243.7,819.1,1250
							z"/>
						<path class="st5" d="M777.7,1102.1l-9.4,33.2c-3.5,8.3-46.9,5.5-42.6-7.3c4.3-12.8,2.7-35,2.7-35L777.7,1102.1z"/>
						<path class="st6" d="M691.8,1163.3c1.6,8.7,29.6,33.9,31.5,47.3c2,13.4-0.8,33.5,11,39.4s74.5,6.3,84.7,0"/>
						<path class="st7" d="M770.8,1218.2c0,0,20.8-9.3,41.5-2"/>
					</g>
					<g id="LEFT_FOOT">
						<path class="st4" d="M533.6,1250c10.2,6.3,66,5.9,77.8,0c11.8-5.9,19-26,20.9-39.4c2-13.4,21-43.5,22.6-52.2
							s-28.8-27.6-34-35.3c4.3,12.8-38.1,20.5-41.6,12.3c1.7,30.3-15.7,78.6-33.9,82.9C533.9,1221,523.4,1243.7,533.6,1250z"/>
						<path class="st5" d="M558.1,1100.2l21.2,35.2c3.5,8.3,45.9,0.5,41.6-12.3c-4.3-12.8-5.7-33-5.7-33L558.1,1100.2z"/>
						<path class="st6" d="M654.9,1158.4c-1.6,8.7-20.6,38.8-22.6,52.2c-2,13.4-9.1,33.5-20.9,39.4s-67.5,6.3-77.8,0"/>
						<path class="st7" d="M581.9,1218.2c0,0-20.7-9.3-41.5-2"/>
					</g>
					<path id="PANTS" class="st8" d="M552.4,598.6c0,0-206.1,100.9-206.1,163c0,110.8,184.3,344.4,216,341.3
						c31.7-3.1,62.8-9.8,61.6-23.2s-67.5-223.5-119-285.7c0,0,18.8-29.6,136.3-28.3c56.6,0.6,106,4.5,107.2,6.3
						s-61.6,124.4-29.5,313.8c2.8,16.5,71.8,23.4,78.5,14.3s113.8-330.8,103.5-356.4c-10.3-25.6-117.8-117.3-170.2-145.2
						C693,578.5,552.4,598.6,552.4,598.6z"/>
				</g>
				<g id="HOODY">
					<path class="st9" d="M493.6,278.5c-26.1,14.3-65.2,143-65.2,143S334.3,306,329.9,304.9c-4.4-1.1-29.6,32.7-29.6,32.7
						S349.4,556.9,426,561.8c32.2,2,59.4-16.6,81.7-43.9c9.9,33,19.1,60.2,19.1,60.2c4,13.9-69.9,52-53.1,62.5
						c0,0,57.5-18.7,159,7.5c121.3,31.3,180,7.6,168.5-1.5c-11.5-9.1-29.5-38.7-35.7-58.5l11.2-106.6c0,0,39.2,99.4,98.4,99.4
						c70.6,0,135.2-215.9,135.2-215.9c-25.1-0.7-45.9-18.6-45.9-18.6c-26.5,18.6-81.8,84-81.8,84s-34.4-104.1-50.9-127.8
						c-16.5-23.7-70.3-42.3-106.2-50.9l-142-6.5C574,243.3,515.8,263.3,493.6,278.5z"/>
					<path class="st10" d="M882.7,425.9c-18,20.7-34.2,57.4-34.2,57.4"/>
					<path class="st10" d="M769.9,267.3c-69-5.8-138.2,37.5-138.2,37.5s-60.9-13.6-73-54.2"/>
					<path class="st11" d="M528.9,578.1c0,0-38.1-109.3-43.4-155.4"/>
				</g>
				<g id="ARMS">
					<g id="RIGHT">
						<path class="st5" d="M1008.4,286.2c-0.9,5.9-7.3,15-1,15c3.3,0,26.9-3.8,29.8,4.8c1.2,4.1,1,8.6-0.6,12.5
							c5.2,7.7,1.2,14,1.2,14c3.1,4.8,4,11,1.8,13.8c0,0,5.5,12.6,0.2,15.5c-16.2,9.1-42,11-54.5,7.8c-8.8-2.3-19.3-7.7-22-26.4
							c-1.1-7.6,6.5-27.7,12.3-36c2.4-3.4,11.1-17,14-20.7c4.2-5.4,7-11.8,8.3-18.6C998,268,1011,269.7,1008.4,286.2z"/>
						<path class="st12" d="M1029.6,304.8c0.6,4-23.5,4.8-27.7,5.7c-5.9,1.3-5.2,14,2.5,12.7c10.5-0.5,20.9-2,31.1-4.5"/>
						<path class="st12" d="M1036.2,332.7c-25.5,5.1-32.3,4.7-32.3,4.7c-3.7,0.7-8.5-12.4,0.5-14.1"/>
						<path class="st12" d="M1036.8,345.9c-24,5.3-32.3,4.7-32.3,4.7c-3.6,0.4-8-12.1-0.7-12.9"/>
						<path class="st12" d="M1011.2,350.4c0,0-8.6-0.8-8.5,4.5c0.2,9.5,4.8,10.5,26.6,6.5"/>
					</g>
					<g id="LEFT">
						<path id="ARM" class="st5" d="M295.5,257c0.2,5.9,5.4,15.7-0.8,14.8c-3.2-0.4-26-7.1-29.9,1.1c-1.7,3.9-2,8.3-0.9,12.4
							c-6,7-2.9,13.7-2.9,13.7c-3.7,4.4-5.2,10.4-3.4,13.4c0,0-6.9,11.8-2.1,15.3c14.8,10.9,40.1,15.9,52.8,14.3
							c8.9-1.2,20-5.2,24.9-23.3c2-7.4-3.1-28.1-7.8-37c-1.9-3.7-8.9-18.1-11.3-22.1c-3.5-5.9-5.5-12.5-5.9-19.3
							C308.1,240.3,295,240.5,295.5,257z"/>
						<g id="FINGERS">
							<path class="st5" d="M265.8,328.6c20.9,6.6,25.6,6.1,27-3.2c0.4-3-2.1-4.3-4.4-4.9c1.1,0.2,2.1,0.4,3.2,0.4
								c3.2,0.8,8.6-10.1,3.8-13.1c2-1,4.1-8.1,4.1-14.4c3.7-2.6,4-10.1-0.3-11.6c-4-1.4-27.7-5.2-26.7-9L265.8,328.6z"/>
							<path class="st13" d="M266.1,285.8c9.4,3.6,19,6.4,28.9,8.2c7.4,2.1,9.7-10.3,4-12.2c-4-1.4-23-7.6-26.7-9"/>
							<path class="st13" d="M263.7,299.5c24.5,8.2,30.1,8.5,30.1,8.5c3.6,1.2,9.9-11.2,1.2-14"/>
							<path class="st13" d="M260.3,312.4c23,8.1,31.3,8.5,31.3,8.5c3.5,0.9,8.3-12.1-0.2-13.2"/>
							<path class="st13" d="M285,319.9c0,0,8.6,0.3,7.8,5.5c-1.4,9.3-6,9.8-27,3.2"/>
						</g>
					</g>
				</g>
				<g id="HEAD">
					<g id="NECK">
						<path class="st5" d="M695.5,159.1c0,0-15.1,67.4,30.1,92.5c0,0-41.6,7.2-94.7,50.9c0,0-40.9-34.4-47.3-57.4
							c0,0,41.6-14.3,37.3-86.1L695.5,159.1z"/>
						<path class="st14" d="M695.5,159.1h-74.6c4.3,71.7-37.3,86.1-37.3,86.1s83,0,106.4-74L695.5,159.1z"/>
					</g>
					<path id="HEAD-2" class="st5" d="M698.3,158.4c0,0-22.2,43.2-75.1,43.2c-47.2,0-54.4-138.6,15.9-140.5
						c67-1.8,58.4,77.5,58.4,77.5s12.1-7,16.4,0.3S698.3,158.4,698.3,158.4z"/>
					<g id="HAIR">
						<path class="st15" d="M667.3,66.3c0,0-0.8,24-34,23.6c-28.8-0.3-44.7,16-46.2,27.8"/>
						<path class="st16" d="M758.4,113.7c0,26.1-31.6,48.7-66.5,64.1c-2.1,0.9-5.4,1.1-9.6,0.8c6.4-5.8,11.8-12.6,16.1-20.1
							c0,0,19.9-12.4,15.6-19.5c-4.3-7.1-16.4-0.3-16.4-0.3s6-55.3-31-72.4c-0.3,0.5-9.9,17.5-38.3,18.4
							c-27,0.8-34.4,11.1-37.5,21.9c-0.1,0.4-0.2,0.7-0.3,1.1c-3.5,14.3-4.3,29.2-2.5,43.8l-0.2-0.1c-2.6-3.2-38.5-48.6-29.1-73
							c10.2-26.5,75.1-63.8,127.1-54.6C714.9,28.9,758.4,99.9,758.4,113.7z"/>
					</g>
				</g>
			</g>
			<g id="COMPUTER">
				<g id="COMPUTER-2">
					<path class="st17" d="M522.9,488.4H124.3c-11.2,0-21.2-7.2-24.7-17.8L15.1,219.1c-3.2-9.6,2-20,11.6-23.3c1.9-0.6,3.9-1,5.9-1
						h398.6c11.2,0,21.2,7.2,24.7,17.8l84.4,251.5c3.3,9.6-1.9,20-11.5,23.3C526.8,488.1,524.9,488.4,522.9,488.4z"/>
					<path class="st18" d="M513.8,498.2H115.2c-11.2,0-21.2-7.2-24.7-17.8L6,228.9c-3.2-9.6,2-20,11.6-23.3c1.9-0.6,3.9-1,5.8-1H422
						c11.2,0,21.2,7.2,24.7,17.8L531.2,474c3.2,9.6-2,20-11.6,23.3C517.7,497.9,515.7,498.2,513.8,498.2z"/>
					<path class="st0" d="M522.9,487.6H124.3c-11.2,0-21.2-7.2-24.7-17.8L15.1,218.3c-3.2-9.6,2-20,11.6-23.3c1.9-0.6,3.9-1,5.9-1
						h398.6c11.2,0,21.2,7.2,24.7,17.8l84.5,251.5c3.2,9.6-2,20-11.6,23.3C526.8,487.3,524.8,487.6,522.9,487.6z"/>
					<path class="st17" d="M350.5,408.8l30.3,75.5h-65.5C315.3,484.2,328,425.2,350.5,408.8z"/>
					<path class="st19" d="M394,578.9c-129,0-74.8-138.1-49.1-166.8h-99.3c-25.7,28.7-95.1,174.3,34,174.3H394V578.9z"/>
					
						<ellipse transform="matrix(0.5338 -0.8456 0.8456 0.5338 -158.8297 379.1403)" class="st17" cx="264.4" cy="333.6" rx="18.9" ry="23.8"/>
					
						<ellipse transform="matrix(0.5338 -0.8456 0.8456 0.5338 -151.353 382.0075)" class="st0" cx="270.8" cy="328.3" rx="18.9" ry="23.8"/>
				</g>
				<g id="TABLE">
					<path class="st18" d="M97.8,586.4h591c8.7,0,15.7,6.6,15.7,14.7l0,0c0,8.1-7,14.7-15.7,14.7h-591V586.4z"/>
					<path class="st0" d="M97.8,586.4h591c8.7,0,15.7,6.6,15.7,14.7l0,0c0,8.1-7,14.7-15.7,14.7h-591V586.4z"/>
				</g>
			</g>
		</g>
	</g>
</g>
<rect x="1097" y="1.3" class="st8" width="1047.9" height="1262.9"/>
</svg>
