<?xml version="1.0" encoding="utf-8"?>
<!-- Generator: Adobe Illustrator 25.2.1, SVG Export Plug-In . SVG Version: 6.00 Build 0)  -->
<svg version="1.1" id="Capa_1" xmlns="http://www.w3.org/2000/svg" xmlns:xlink="http://www.w3.org/1999/xlink" x="0px" y="0px"
	 viewBox="0 0 1048.4 1263.2" style="enable-background:new 0 0 1048.4 1263.2;" xml:space="preserve">
<style type="text/css">
	.st0{fill:none;stroke:#343348;stroke-width:5.9524;stroke-linecap:round;stroke-miterlimit:10;}
	.st1{fill:#FFFFFF;stroke:#343348;stroke-width:4.9604;stroke-miterlimit:10;}
	.st2{fill:#0084FF;stroke:#0084FF;stroke-width:4.9604;stroke-miterlimit:10;}
	.st3{fill:#0084FF;}
	.st4{fill:#0084FF;stroke:#343348;stroke-width:4.9604;stroke-miterlimit:10;}
	.st5{fill:none;stroke:#343348;stroke-width:4.9604;stroke-miterlimit:10;}
	.st6{fill:#4E1D68;}
	.st7{fill:#B65A18;}
	.st8{fill:#E5E6FF;}
	.st9{fill:#343348;}
	.st10{fill:#672C82;}
	.st11{fill:#C36F0B;}
	.st12{fill:#FFB000;}
	.st13{fill:#FFC033;}
	.st14{fill:none;stroke:#A55F2B;stroke-width:3.9683;stroke-linecap:round;stroke-miterlimit:10;}
	.st15{fill:none;stroke:#343348;stroke-width:3.9683;stroke-miterlimit:10;}
	.st16{fill:none;stroke:#FFB000;stroke-width:4.9604;stroke-linecap:round;stroke-miterlimit:10;}
	.st17{fill:none;stroke:#343348;stroke-width:4.9604;stroke-linecap:round;stroke-miterlimit:10;}
	.st18{fill:#FFFFFF;}
	.st19{fill:#FFFFFF;stroke:#343348;stroke-width:5.9524;stroke-miterlimit:10;}
</style>
<g id="Layer_2">
	<g id="Слой_1">
		<g id="_4">
			<g id="CHAIR">
				<path class="st0" d="M689.4,869.3v171.3c0,52.8,27.4,101.7,72.2,129.4l63.2,39"/>
				<path class="st0" d="M655.2,869.3v171.3c0,52.8-27.3,101.7-72.2,129.4l-63.2,39"/>
				<path class="st1" d="M689.8,869.3h-38.2c-17.6,0-31.7-14.2-31.7-31.7l0,0l0,0h101.7l0,0l0,0C721.6,855,707.4,869.3,689.8,869.3
					L689.8,869.3z"/>
				<polygon class="st1" points="731.3,782.7 762,782.7 774,715.8 743.3,715.8 				"/>
				<path class="st2" d="M494.3,794.9v25.9c0,3.5,9.4,6.6,25.7,9.3c31.3,5.3,88.2,8.7,153.1,8.7c98.7,0,178.8-8.1,178.8-18.2v-25.9
					c0,5.1-20.5,9.6-53.7,12.9c-32.2,3.3-76.4,5.3-125,5.3c-48.6,0-92.9-2-125.1-5.2c-10.7-1.1-20.1-2.3-28-3.6
					C503.6,801.5,494.3,798.4,494.3,794.9z"/>
				<path class="st2" d="M494.3,794.9c0,3.5,9.4,6.6,25.7,9.3c7.8,1.3,17.3,2.5,28,3.6c32.2,3.3,76.4,5.3,125.1,5.3
					s92.9-2,125.1-5.2c33.1-3.3,53.7-7.8,53.7-12.9c0-10-80.1-18.2-178.8-18.2c-78.5,0-145.1,5.2-169.2,12.3
					C497.6,790.8,494.3,792.8,494.3,794.9z"/>
				<path class="st2" d="M746.6,718h35.2c31.2,0,64.4-39.9,74.2-89.2l22.3-112.4c9.8-49.2-7.5-89.2-38.7-89.2h-35.2
					c-31.2,0-64.4,39.9-74.2,89.2l-22.3,112.4C698,678.1,715.4,718,746.6,718z"/>
				<path class="st3" d="M725.7,718h35.2c31.2,0,64.4-39.9,74.2-89.2l22.3-112.4c9.8-49.2-7.5-89.2-38.7-89.2h-35.2
					c-31.2,0-64.4,39.9-74.2,89.2L687,628.8C677.2,678.1,694.6,718,725.7,718z"/>
				<circle class="st4" cx="827.7" cy="1227.8" r="28.3"/>
				<circle class="st4" cx="519.2" cy="1227.8" r="28.3"/>
				<path class="st5" d="M630.7,1123.4c0,0,36.6-26.9,83.2,0"/>
			</g>
			<g id="WOMAN">
				<g id="LEGS">
					<g id="LEFT">
						<path class="st6" d="M766.3,712.5C715.7,784.3,513,740.4,513,740.4c-1.4-27.9,0.7-101-48.7-142.7l114.3,3
							c90.3,8.4,157.1-9.6,178-18.9C774.4,607.8,802,661.9,766.3,712.5z"/>
						<path class="st7" d="M434.3,602.2c0,0-139.9,8.5-151.9,38.4C245,733.7,390.1,1026.9,399.2,1099c7.6,60.6-42.5,93.1-42.5,93.1
							s22.5,15.5,54.2,6.9c6.7-1.8,13.1-10.3,25.7-20.6c9.4-7.6,32.5-21.3,32.1-32.9c-0.7-19-28.5-33.8-27.7-45.7
							c0.8-11.9,23.9-171.1,15.9-239.6C448,783.8,390.5,742,390.5,742l122.9-1.5C513.5,740.6,494.3,640.3,434.3,602.2z"/>
						<path class="st8" d="M515.4,740.5c0,0,10.5-96.5-53.6-144.6c-5.1-3.8-19.2,0.8-27.4,2.5c-3,0.6-3.8,4-2,6.4
							c42.5,61.1,43.4,113.5,40.5,144.4L515.4,740.5z"/>
						<path class="st9" d="M467.2,1130.5c7,9.1,6.2,22-2,30.2l-44.2,43.8c0,0-79.3,1.5-83.9,0c-4.7-1.5-0.5-14.7,12.4-18.6
							c12.9-3.9,30.6-25.3,30.6-25.3s14.1-15.1,37,31.6l15.4-13.5c0,0-3.7-39.8,2.4-60.4h-35.5c-3.4,0-6.2-2.7-6.3-6.2l0,0
							c0.1-3.3,2.7-5.8,6-5.8h44c1.4,0,2.8,0.6,3.8,1.7L467.2,1130.5z"/>
					</g>
					<g id="RIGHT">
						<path class="st10" d="M796.1,743.3c-21.5,62.2-198.3,54-228.5,51.8V795c-1.4-27.9-9.5-115.8-58.9-157.4l65.6-15.9l7.3-20.6
							c88.2,7.7,153.5-9.7,174.5-19C770.7,601.3,820,674,796.1,743.3z"/>
						<path class="st11" d="M465,646.9c0,0-145.2,28-151.5,70.4s85.7,371,75.8,431.4c-9.9,60.3-75.2,102-75.2,102s54.1,10.3,82.9,0
							c6.6-2.4,18.7-18.3,29.7-24.6c10.5-6.1,32.5-16.4,32.1-28c-0.7-19-28.5-34.8-27.7-46.7c0.8-11.9,44.7-183,36.7-251.5
							c-8.9-76.4-36.7-108.2-36.7-108.2l81.3-1.5C512.5,790.2,527.7,704,465,646.9z"/>
						<path class="st8" d="M519.4,799.6l40.1,4c4.6,0,8.2-3.7,8.2-8.2c0-0.1,0-0.3,0-0.4c-1.4-28.1-9.6-117-59.9-158.3
							c-4.2-3.4-9.7-4.7-14.9-3.3l-33.7,8.7c0,0,68.2,46.5,52.2,148c-0.7,4.5,2.4,8.7,6.8,9.5C518.5,799.6,518.9,799.6,519.4,799.6z
							"/>
						<path class="st9" d="M456.2,1180.5c7.1,9.3,6.3,22.5-2.1,30.8l-45.2,44.6c0,0-91,1.5-95.7,0c-4.8-1.5-0.5-15,12.7-18.9
							c13.2-4,31.2-25.8,31.2-25.8s24.5-15.4,47.9,32.2l15.7-13.8c0,0-3.7-40.7,2.4-61.7h-36.3c-3.5,0-6.3-2.8-6.3-6.2
							c0,0,0,0,0-0.1c0.1-3.3,2.8-6,6.1-6h44.9c1.5,0,2.9,0.6,3.9,1.7L456.2,1180.5z"/>
					</g>
				</g>
				<path id="T-SHIRT" class="st12" d="M677.2,211.3c13.7,7.2,46.2,23.6,66.6,58.6c20.3,35-24.3,162.3-23.7,200.3
					S756.7,574,762.9,577c6.3,3-73.6,35.7-191.5,23.1c0,0,9.3-53.1,2.5-76.2c-6.8-23.1-38.3-90.1-38.3-90.1s-35.8-27.3-28.2-48.8
					c5.1-14.4,58.7-103.3,58.7-103.3L677.2,211.3z"/>
				<g id="HAND">
					<path class="st13" d="M796.4,401.3c0,0-36.4,43-102.9,43c0,0-53.2-171.3,7.6-193.1S796.4,401.3,796.4,401.3z"/>
					<path class="st11" d="M800.6,514.1c-3.1,28.7-236.3,67.4-236.3,67.4l-0.1-0.1c-4.3,2.2-19.7,9.4-30.3,4.1
						c-12.2-6.2-23-8.9-30.5-7.2c-9.2,2-19.7,9.1-25,7.5c-6.3-1.9-12.3-5-17.6-9c5.2-6,10.5-11.6,16.3-17c-5.3,1.7-12.8,6-16.7,7.2
						c-6.3,2.2-8.5-3.9-8.5-3.9s15-10.5,19-12.9c7.1-4.1,23.1-7.9,27.5-7.9c7.6,0.2,48.7,5.4,69,9c33.4-17.5,118.4-61.2,151.3-72.4
						l-11.2-36.1c0,0,47.3-4.6,80.6-34.7C788.2,408,803.8,484.5,800.6,514.1z"/>
					<path class="st14" d="M467.7,578.5c0,0,22.4-19.3,27.4-19.8c8.7-0.8,20-2,20-2"/>
					<path class="st14" d="M475,582.8c0,0,19.8-15.9,24.8-16.4c8.7-0.8,20-2,20-2"/>
					<path class="st7" d="M793.5,436.7c-14.7,8.6-41.1,20-82.5,16.7l-3.3-10.6c0,0,47.3-4.6,80.6-34.7
						C788.2,408,790.7,420.2,793.5,436.7z"/>
				</g>
				<g id="HEAD">
					<g id="HAIR">
						<path class="st9" d="M719.1,110.8c0,0-7.6,106.6-231.9,135.7c0,0-29.3-23.7-11.9-47.7c17.4-24,36.6-32.8,20.1-49
							c-16.5-16.2-39.3-49.9-6.3-81S597.9-3.3,652.9,26.7S640.4,111.8,719.1,110.8z"/>
						<path class="st15" d="M476.3,246.7c0,0-29.3-23.7-11.9-47.7c17.4-24,34.6-32.8,18.3-49c-16.4-16.2-33.3-55.3,4.1-81.1
							c43.4-29.9,89-43.5,142.6-22.8"/>
					</g>
					<g id="NECK">
						<path class="st11" d="M619.5,118.3c0,0,9.1,64.2,57.6,93.1c0,0-31.7,63.6-112.7,73.9c0,0,23.1-42.1,23-55.5
							s-10.6-52.2-10.6-52.2L619.5,118.3z"/>
						<path class="st7" d="M622,142.2c0.8,30-20.1,53.4-37.9,65.7c-3.1-14.8-7.3-30.4-7.3-30.4l42.7-59.3c0.7,4.2,1.6,8.2,2.7,12.3
							C622,134.2,621.9,138,622,142.2z"/>
					</g>
					<path id="HEAD-2" class="st11" d="M614.5,91.9C598,73,573,59.8,550.4,67c-34.8,11.2-39.5,68.9,5.3,121.3
						c5.4,6.3,56.8-13.2,62-54.5C620.5,112.2,614.5,91.9,614.5,91.9z"/>
					<g id="HEADPHONES">
						<path class="st16" d="M616.5,96l-17.3-70.3c-3.1-12-14.5-19.4-26.3-17.3l-34.1,7.2c-10.9,2.1-17.2,14.4-17.1,25.9"/>
						<path class="st17" d="M631.8,134.4c7.9,23.8,36.1,77.6,0,139.4c-36.1,61.8-82.1,107.9-46.9,173.2
							c30.6,56.6,28.6,143.8-53.6,143.8"/>
						<path class="st18" d="M614.7,91.3l3-0.7c12-2.9,24.1,4.5,27,16.5l0.7,3c2.9,12-4.5,24.1-16.5,27l-3,0.7
							c-12,2.9-24.1-4.5-27-16.5l-0.7-3C595.4,106.3,602.7,94.2,614.7,91.3z"/>
					</g>
				</g>
			</g>
			<g id="LAPTOP">
				<path class="st19" d="M296.5,584.5h-15.3c-6.9,0-13.3-4.1-16.1-10.5l-98.5-226.6c-3.9-8.8,0.2-19.1,9-23c2.2-1,4.6-1.5,7-1.5
					l0,0L296.5,584.5z"/>
				<path class="st19" d="M610.7,609.6H309.1c-13.9,0-25.1-11.2-25.1-25.1l0,0h301.7C599.5,584.5,610.7,595.7,610.7,609.6
					L610.7,609.6z"/>
			</g>
		</g>
	</g>
</g>
<rect x="1082.5" y="0.1" class="st10" width="1047.9" height="1262.9"/>
</svg>
